<svg id="Layer_1" data-name="Layer 1" xmlns="http://www.w3.org/2000/svg" xmlns:xlink="http://www.w3.org/1999/xlink" viewBox="0 0 635.4 597"><defs><linearGradient id="linear-gradient" x1="95.1" y1="205.4" x2="729.02" y2="205.4" gradientUnits="userSpaceOnUse"><stop offset="0" stop-color="#68e1fd"/><stop offset="1" stop-color="#69b9eb"/></linearGradient><linearGradient id="linear-gradient-2" x1="4.71" y1="120.92" x2="969.31" y2="317.8" gradientUnits="userSpaceOnUse"><stop offset="0" stop-color="#fff" stop-opacity="0"/><stop offset="1" stop-color="#fff"/></linearGradient><linearGradient id="linear-gradient-3" x1="40.96" y1="56.9" x2="1173.8" y2="33.99" gradientUnits="userSpaceOnUse"><stop offset="0.02" stop-opacity="0"/><stop offset="0.99" stop-color="#3f3d56"/></linearGradient><linearGradient id="linear-gradient-4" x1="313.9" y1="169.99" x2="117.26" y2="244.19" gradientUnits="userSpaceOnUse"><stop offset="0" stop-color="#68e1fd"/><stop offset="0.01" stop-color="#67ddf9"/><stop offset="0.12" stop-color="#5cb3ce"/><stop offset="0.24" stop-color="#538ea9"/><stop offset="0.37" stop-color="#4c718b"/><stop offset="0.5" stop-color="#465a73"/><stop offset="0.63" stop-color="#424a63"/><stop offset="0.79" stop-color="#404059"/><stop offset="0.99" stop-color="#3f3d56"/></linearGradient><linearGradient id="linear-gradient-5" x1="433.19" y1="169.79" x2="451.34" y2="169.79" xlink:href="#linear-gradient"/><linearGradient id="linear-gradient-6" x1="299.94" y1="170.35" x2="402.51" y2="170.68" gradientUnits="userSpaceOnUse"><stop offset="0" stop-opacity="0"/><stop offset="0.02" stop-color="#030304" stop-opacity="0.04"/><stop offset="0.18" stop-color="#181821" stop-opacity="0.39"/><stop offset="0.35" stop-color="#292839" stop-opacity="0.66"/><stop offset="0.53" stop-color="#363449" stop-opacity="0.85"/><stop offset="0.73" stop-color="#3d3b53" stop-opacity="0.96"/><stop offset="0.99" stop-color="#3f3d56"/></linearGradient><linearGradient id="linear-gradient-7" x1="447.14" y1="169.19" x2="415.92" y2="170.22" xlink:href="#linear-gradient"/><linearGradient id="linear-gradient-8" x1="332.98" y1="248.71" x2="366.51" y2="159.01" xlink:href="#linear-gradient-6"/><linearGradient id="linear-gradient-9" x1="383.62" y1="240.51" x2="358.16" y2="151.74" xlink:href="#linear-gradient-6"/><linearGradient id="linear-gradient-10" x1="371.63" y1="170.23" x2="244.49" y2="351.29" xlink:href="#linear-gradient-6"/><linearGradient id="linear-gradient-11" x1="385.52" y1="179.98" x2="258.38" y2="361.05" xlink:href="#linear-gradient-6"/><linearGradient id="linear-gradient-12" x1="520.26" y1="273.9" x2="770.91" y2="509.89" xlink:href="#linear-gradient-6"/><linearGradient id="linear-gradient-13" x1="643.36" y1="334.68" x2="429.63" y2="397.79" xlink:href="#linear-gradient-6"/><linearGradient id="linear-gradient-14" x1="477.51" y1="313.17" x2="507.97" y2="313.17" gradientUnits="userSpaceOnUse"><stop offset="0" stop-color="#ecc4d7"/><stop offset="0.42" stop-color="#efd4d1"/><stop offset="1" stop-color="#f2eac9"/></linearGradient><linearGradient id="linear-gradient-15" x1="463.69" y1="408.74" x2="521.1" y2="408.74" xlink:href="#linear-gradient"/><linearGradient id="linear-gradient-16" x1="486.41" y1="276.32" x2="513.62" y2="275.83" xlink:href="#linear-gradient-14"/><linearGradient id="linear-gradient-17" x1="583.1" y1="271.91" x2="577.49" y2="274.87" xlink:href="#linear-gradient-14"/><linearGradient id="linear-gradient-18" x1="595.75" y1="333.25" x2="525" y2="305.55" gradientUnits="userSpaceOnUse"><stop offset="0" stop-color="#fff" stop-opacity="0"/><stop offset="1" stop-color="#fff"/></linearGradient><linearGradient id="linear-gradient-19" x1="551.28" y1="581.96" x2="587" y2="581.96" xlink:href="#linear-gradient-6"/><linearGradient id="linear-gradient-20" x1="588.07" y1="584.48" x2="608.85" y2="584.48" xlink:href="#linear-gradient-6"/></defs><title>11. Authenctication</title><path d="M467.44,589.54c6.45,2.66,13.58,3.05,20.54,3.38q88.11,4.25,176.34,4.07c5.88,0,11.89-.06,17.4-2.1s10.5-6.52,11.47-12.32c-36.83-2.86-73.92-2.58-110.62-3.94-19.24-.71-39.22,1.7-58.36,3.53q-14.55,1.4-29.05,3.28C489.08,586.24,472.85,591.77,467.44,589.54Z" transform="translate(-95.1 0)" fill="#1d2741" opacity="0.18"/><path d="M582.47,571.45,587,582.58l-18.3,8.66-16.9,1.23s-2.89-11.13,5-12.12a27.15,27.15,0,0,0,12.78-4.94Z" transform="translate(-95.1 0)" fill="#68e1fd"/><path d="M597,576.48h0a13.73,13.73,0,0,0-8.42,11.3l-.49,4.69h20.78v-16Z" transform="translate(-95.1 0)" fill="#68e1fd"/><path d="M729,66.46V344.34a30.78,30.78,0,0,1-30.79,30.79H125.89A30.79,30.79,0,0,1,95.1,344.34V66.46a30.83,30.83,0,0,1,30.79-30.79H698.23A30.83,30.83,0,0,1,729,66.46Z" transform="translate(-95.1 0)" opacity="0.22" fill="url(#linear-gradient)" style="isolation:isolate"/><path d="M730.5,65.43V343.3a30.8,30.8,0,0,1-24.33,30.12,31.16,31.16,0,0,1-6.45.67H127.38a30.78,30.78,0,0,1-30.8-30.79V65.43a30.83,30.83,0,0,1,30.8-30.8H699.72a30.78,30.78,0,0,1,30.52,26.83A28.88,28.88,0,0,1,730.5,65.43Z" transform="translate(-95.1 0)" fill="#68e1fd"/><path d="M730.5,65.43V343.3a30.8,30.8,0,0,1-24.33,30.12,31.16,31.16,0,0,1-6.45.67H127.38a30.78,30.78,0,0,1-30.8-30.79V65.43a30.83,30.83,0,0,1,30.8-30.8H699.72a30.78,30.78,0,0,1,30.52,26.83A28.88,28.88,0,0,1,730.5,65.43Z" transform="translate(-95.1 0)" fill="url(#linear-gradient-2)" style="isolation:isolate"/><path d="M728.76,62.5H95.36a30.79,30.79,0,0,1,30.53-26.83H698.23A30.78,30.78,0,0,1,728.76,62.5Z" transform="translate(-95.1 0)" fill="url(#linear-gradient-3)" style="isolation:isolate"/><rect x="191.52" y="279.01" width="230.1" height="28.87" rx="7.92" fill="#fff" stroke="#68e1fd" stroke-miterlimit="10" stroke-width="0.88"/><circle cx="210.28" cy="293.83" r="6.29" fill="#68e1fd"/><circle cx="229.85" cy="293.83" r="6.29" fill="#68e1fd"/><circle cx="249.43" cy="293.83" r="6.29" fill="#68e1fd"/><circle cx="269" cy="293.83" r="6.29" fill="#68e1fd"/><path d="M532.25,292.11v-3.32h2.62v-2.14h-2.62v-1.6h2.62v-2.14h-5.25v9.2a6.57,6.57,0,1,0,2.63,0Zm-1.31,11a4.57,4.57,0,1,1,4.56-4.57A4.58,4.58,0,0,1,530.94,303.12Z" transform="translate(-95.1 0)" fill="#68e1fd"/><rect x="268.26" y="125.83" width="89.14" height="89.14" rx="11.76" fill="url(#linear-gradient-4)" style="isolation:isolate"/><rect x="273.72" y="125.83" width="83.67" height="89.14" rx="11.39" fill="#68e1fd"/><path d="M455.94,170.69l-4.6,4.37h0l-2,1.88a15.51,15.51,0,0,0-13-5.51,5.7,5.7,0,0,1-3.13-.51c-3.31-1.88,1.88-8.29,1.88-8.29a26.07,26.07,0,0,1,3.42.15,1.53,1.53,0,0,1,.3,0l.91.11C444.06,163.51,451.13,165.58,455.94,170.69Z" transform="translate(-95.1 0)" fill="#fff"/><path d="M451.16,174.65l.18.41-2,1.88a15.51,15.51,0,0,0-13-5.51,5.7,5.7,0,0,1-3.13-.51l1.88-8.29s1.85,0,3.42.15a1.53,1.53,0,0,1,.3,0,7.56,7.56,0,0,1,.91.11s1.09,4.66.28,6.62C440,169.54,447.67,170.82,451.16,174.65Z" transform="translate(-95.1 0)" opacity="0.39" fill="url(#linear-gradient-5)"/><rect x="306.77" y="144.62" width="12.12" height="51.56" rx="4.51" fill="url(#linear-gradient-6)"/><path d="M436.32,169.7A20.49,20.49,0,0,1,415.85,190h-4.41a3.55,3.55,0,0,1-3.19-2,3.55,3.55,0,0,1,3.19-5.13h1.64a13.35,13.35,0,0,0,13.35-13.64,13.53,13.53,0,0,0-13.62-13.07h-2a2.92,2.92,0,0,1-2.92-2.92V152a2.92,2.92,0,0,1,2.92-2.92h4.69C426.83,149.07,436.4,158.35,436.32,169.7Z" transform="translate(-95.1 0)" fill="#fff"/><path d="M430.86,170.52a17.81,17.81,0,0,1-17.79,17.66h-3.84a3.19,3.19,0,0,1-1-.16,3.55,3.55,0,0,1,3.19-5.13h1.64a13.35,13.35,0,0,0,13.35-13.64,13.53,13.53,0,0,0-13.62-13.07h-2a2.92,2.92,0,0,1-2.92-2.92v-.55a2.63,2.63,0,0,1,.8-.13h4.07A18.08,18.08,0,0,1,430.86,170.52Z" transform="translate(-95.1 0)" opacity="0.39" fill="url(#linear-gradient-7)"/><path d="M425.79,165.47s1.34,3.59-.33,9.07c0,0-6.33,6.51-.93,16.86l4.46,4.77-5.19,5.11a23,23,0,0,1-8.67-21.54C416.28,170.92,425.79,165.47,425.79,165.47Z" transform="translate(-95.1 0)" fill="#fff"/><polygon points="324.27 205.4 365.37 166.4 399.85 196.17 357.39 236.9 324.27 205.4" fill="#68e1fd"/><polygon points="324.27 205.4 327 220.86 357.39 250.02 357.39 236.9 324.27 205.4" fill="#68e1fd"/><polygon points="399.85 196.17 399.85 210.36 357.39 250.02 357.39 236.9 399.85 196.17" fill="#68e1fd"/><polygon points="324.27 205.4 327 220.86 357.39 250.02 357.39 236.9 324.27 205.4" fill="url(#linear-gradient-8)"/><polygon points="399.85 196.17 399.85 210.36 357.39 250.02 357.39 236.9 399.85 196.17" fill="url(#linear-gradient-9)"/><polygon points="331.85 212.61 373.34 173.28 377.17 176.59 335.76 216.33 331.85 212.61" fill="url(#linear-gradient-10)"/><polygon points="344.1 224 386.58 184.67 390.41 187.97 348.01 227.71 344.1 224" fill="url(#linear-gradient-11)"/><path d="M557.7,262.72a76.31,76.31,0,0,0,1,18.48c.68,3.77,1.59,7.92-.35,11.24-1,1.8-2.8,3.06-4.41,4.39-10.22,8.4-16.13,20.87-24.86,30.81a4.4,4.4,0,0,1-2.38,1.69,4.31,4.31,0,0,1-2.78-.79,36.94,36.94,0,0,1-13-12.64c-1.57-2.56-3-5.48-5.7-6.79-5-2.46-11.06,2.77-11.61,8.34s2.44,10.81,5.33,15.6l13.37,22.18c4.07,6.76,8.36,13.75,15,18a36.23,36.23,0,0,0,15.11,5.1c7.58,1,15.27.5,22.9-.09q20.93-1.62,41.75-4.16c4.76-.58,10.17-1.62,12.58-5.75,1.62-2.78,1.4-6.21,1.12-9.41q-1.47-17.39-3-34.77c-.55-6.57-1.37-13.71-6-18.39-2.77-2.78-6.65-4.36-9.11-7.43a18.63,18.63,0,0,1-3.3-8.31c-2.37-12.5-.1-25.93-5-37.7-1-2.38-2.34-4.74-4.55-6.07a12.2,12.2,0,0,0-6.59-1.33C572.27,245.23,558.5,250.45,557.7,262.72Z" transform="translate(-95.1 0)" opacity="0.21" fill="url(#linear-gradient-12)"/><path d="M706.47,439.22c-5.93,68.33-193.92,46.44-329.11,18.74s-246.73,27.7-272.45-18.74c-11.39-20.56-3.78-46.24,8.25-68.48a30.59,30.59,0,0,0,15,3.87H695.4C703.21,393,708.58,415,706.47,439.22Z" transform="translate(-95.1 0)" fill="#68e1fd" opacity="0.18"/><path d="M558.79,410.83l-12.31,89.66a23.88,23.88,0,0,0,1.15,11.21l22,64.78,12.86-4-9.7-64.45a9.23,9.23,0,0,1,.26-4l16.69-57.64,7.26,130h11.87L619.08,448.1c3.46-21.44-2.88-37.27-2.88-37.27Z" transform="translate(-95.1 0)" fill="#3f3d56"/><path d="M621.88,387.09,609.7,308.63,608,299.07s22.74,13,29.26,35.74C645.79,364.66,621.88,387.09,621.88,387.09Z" transform="translate(-95.1 0)" fill="#68e1fd"/><path d="M621.88,387.09,609.7,308.63,608,299.07s22.74,13,29.26,35.74C645.79,364.66,621.88,387.09,621.88,387.09Z" transform="translate(-95.1 0)" fill="url(#linear-gradient-13)"/><path d="M634.38,368.83c9.23-18.25-9-50-9-50l-15.7-10.19,1.77-11.33s25.32,2.59,27.79,38.34C640.06,347.16,639.2,361.38,634.38,368.83Z" transform="translate(-95.1 0)" fill="#68e1fd"/><path d="M503.93,307.57c-.85-2.88-2.33-6.31-5.33-6.57a11.91,11.91,0,0,1-.34,8c-6.54-2.42-8.06-12-14.59-14.48-1,1.06-.44,2.79.18,4.11q1.71,3.69,3.44,7.38-2.3-3.62-4.89-7c-.51-.69-1.39-1.44-2.11-1s-.46,1.37-.2,2.09c1.14,3.2,2.44,6.35,3.87,9.43a53.92,53.92,0,0,0-5.49-7.62c-1.34.33-1.06,2.31-.48,3.56l4.29,9.14-3.44-5c-1.11.11-.94,1.81-.4,2.79a42.79,42.79,0,0,0,20.5,18.43c1.76.75,3.8,1.37,5.53.56C511.91,328,505.37,312.51,503.93,307.57Z" transform="translate(-95.1 0)" fill="url(#linear-gradient-14)"/><path d="M621.88,331.84v61.52c0,7.54-1.23,13.67-8.78,13.67H560.38c-7.52,0-7.81-6.07-7.86-13.58l-.39-41.81s-11.38,20.27-20.46,18.3-36-39.08-36-39.08l13.4-11.26,22.58,22.64s3.63-8.25,8.91-26.72S563,297,563,297h45.84C625.39,297,621.88,331.84,621.88,331.84Z" transform="translate(-95.1 0)" fill="#68e1fd"/><path d="M621.88,338.77s7.92,11.13,0,22.26Z" transform="translate(-95.1 0)" fill="#3f3d56"/><rect x="463.69" y="406.64" width="57.41" height="4.19" fill="url(#linear-gradient-15)"/><rect x="483.24" y="255.16" width="16.57" height="42.13" fill="url(#linear-gradient-16)"/><path d="M594.92,250.54V297.3h-8.74v-2.85a6.31,6.31,0,0,0-6.32-6.31h-.5a15.7,15.7,0,0,1-15.7-15.7v-21.9Z" transform="translate(-95.1 0)" fill="url(#linear-gradient-17)"/><path d="M563.66,255.16s-14.5-7.91-9.31-16.57S568,235.38,568,235.38h27.95s3.21-.5,4.45,4.94-5.44,39.21-5.44,39.21H581.07l-1.78-8.78s2.77-3,2.52-6.19a2.6,2.6,0,0,0-4.94-1.23c-1.25,2.22-.75-7.18-5.2-8.17A18.1,18.1,0,0,0,563.66,255.16Z" transform="translate(-95.1 0)" fill="#3f3d56"/><path d="M591.21,297.21s-6.43,8.42-15.34,8.42S541,331.1,539.26,338.77s-7.59,3.47-7.59,3.47,3.63-8.25,8.91-26.72S563,297,563,297H586.3Z" transform="translate(-95.1 0)" fill="url(#linear-gradient-18)" style="isolation:isolate"/><path d="M582.47,571.45,587,582.58l-18.3,8.66-16.9,1.23s-2.89-11.13,5-12.12a27.15,27.15,0,0,0,12.78-4.94Z" transform="translate(-95.1 0)" fill="url(#linear-gradient-19)"/><path d="M597,576.48h0a13.73,13.73,0,0,0-8.42,11.3l-.49,4.69h20.78v-16Z" transform="translate(-95.1 0)" fill="url(#linear-gradient-20)"/><path d="M215.23,36.19s128.36-81.43,292.74,0Z" transform="translate(-95.1 0)" fill="#68e1fd" opacity="0.18"/></svg>